General
Unique ID                                : 324211433755908368514535182576227233941 (0xF3E8D9D1D9DBA3650AC8CC0952C8B095)
Complete name                            : ASIAN KUNG-FU GENERATION - Mustang [WEB-DL 1080p AAC x264-SEKAI].mkv
Format                                   : Matroska
Format version                           : Version 4
File size                                : 249 MiB
Duration                                 : 5 min 6 s
Overall bit rate                         : 6 828 kb/s
Frame rate                               : 29.970 FPS
Title                                    : ASIAN KUNG-FU GENERATION - Mustang [WEB-DL 1080p AAC x264-SEKAI]
Encoded date                             : 2025-09-27 17:00:56 UTC
Writing application                      : mkvmerge 95.0 ('Goodbye Stranger') 64-bit
Writing library                          : libebml v1.4.5 + libmatroska v1.7.1
Website                                  : https://sekai-archivist.blogspot.com/

Video
ID                                       : 1
Format                                   : AVC
Format/Info                              : Advanced Video Codec
Format profile                           : High@L4
Format settings                          : CABAC / 4 Ref Frames
Format settings, CABAC                   : Yes
Format settings, Reference frames        : 4 frames
Format settings, Slice count             : 8 slices per frame
Codec ID                                 : V_MPEG4/ISO/AVC
Duration                                 : 5 min 6 s
Bit rate                                 : 6 561 kb/s
Width                                    : 1 876 pixels
Height                                   : 922 pixels
Display aspect ratio                     : 2.035
Frame rate mode                          : Constant
Frame rate                               : 29.970 (30000/1001) FPS
Color space                              : YUV
Chroma subsampling                       : 4:2:0 (Type 2)
Bit depth                                : 8 bits
Scan type                                : Progressive
Bits/(Pixel*Frame)                       : 0.127
Stream size                              : 239 MiB (96%)
Default                                  : Yes
Forced                                   : No
Color range                              : Limited
Color primaries                          : BT.709
Transfer characteristics                 : BT.709
Matrix coefficients                      : BT.709

Audio
ID                                       : 2
Format                                   : AAC LC
Format/Info                              : Advanced Audio Codec Low Complexity
Codec ID                                 : A_AAC-2
Duration                                 : 5 min 6 s
Bit rate                                 : 265 kb/s
Channel(s)                               : 2 channels
Channel layout                           : L R
Sampling rate                            : 48.0 kHz
Frame rate                               : 46.875 FPS (1024 SPF)
Compression mode                         : Lossy
Stream size                              : 9.71 MiB (4%)
Default                                  : Yes
Forced                                   : No


